<svg xmlns="http://www.w3.org/2000/svg" viewBox="0 0 128 128">
  <rect x="8" y="8" width="112" height="112" rx="24" ry="24" fill="#3B82F6"/>
  <rect x="28" y="24" width="72" height="80" rx="8" ry="8" fill="#FFFFFF"/>
  <rect x="36" y="36" width="16" height="16" rx="3" ry="3" fill="none" stroke="#3B82F6" stroke-width="2"/>
  <path d="M40 44 L44 48 L52 38" fill="none" stroke="#3B82F6" stroke-width="2.5" stroke-linecap="round" stroke-linejoin="round"/>
  <rect x="58" y="40" width="34" height="6" rx="3" ry="3" fill="#E5E7EB"/>
  <rect x="36" y="56" width="16" height="16" rx="3" ry="3" fill="none" stroke="#3B82F6" stroke-width="2"/>
  <path d="M40 64 L44 68 L52 58" fill="none" stroke="#3B82F6" stroke-width="2.5" stroke-linecap="round" stroke-linejoin="round"/>
  <rect x="58" y="60" width="28" height="6" rx="3" ry="3" fill="#E5E7EB"/>
  <rect x="36" y="76" width="16" height="16" rx="3" ry="3" fill="none" stroke="#D1D5DB" stroke-width="2"/>
  <rect x="58" y="80" width="32" height="6" rx="3" ry="3" fill="#E5E7EB"/>
</svg>
